<?xml version="1.0" encoding="utf-8"?>
<!-- Generator: Adobe Illustrator 15.0.0, SVG Export Plug-In . SVG Version: 6.00 Build 0)  -->
<!DOCTYPE svg PUBLIC "-//W3C//DTD SVG 1.1//EN" "http://www.w3.org/Graphics/SVG/1.1/DTD/svg11.dtd">
<svg version="1.1" id="Layer_1" xmlns="http://www.w3.org/2000/svg" xmlns:xlink="http://www.w3.org/1999/xlink" x="0px" y="0px"
	 width="242.57px" height="29px" viewBox="0 0 242.57 29" enable-background="new 0 0 242.57 29" xml:space="preserve">
<g>
	<g>
		<g>
			<path fill="#B29B70" d="M37.818,3.305v0.498c-1.349,0-2.27,0.343-3.342,1.431l-6.318,6.494l8.832,8.794
				c1.472,1.493,2.638,1.836,3.743,1.865v0.623h-8.803v-0.623c1.196,0,1.871-0.311,1.871-0.837c0-0.437-0.797-1.557-2.298-3.077
				l-5.091-5.097l-1.381,1.275v4.939c0,2.362,0.369,2.797,2.331,2.797v0.623H20v-0.623c2.024,0,2.392-0.435,2.392-2.797V6.724
				c0-2.362-0.368-2.797-2.392-2.797V3.305h7.42v0.623c-2.023,0-2.391,0.435-2.391,2.797v6.962l4.723-4.568
				c1.84-1.773,2.882-3.078,2.882-4.011c0-0.745-0.829-1.087-1.993-1.058V3.431L37.818,3.305z"/>
			<path fill="#B29B70" d="M43.218,22.512c1.412,0,1.779-0.434,1.779-2.796V6.258c0-1.616-0.123-1.772-1.197-2.299
				c-0.214-0.125-0.428-0.188-0.428-0.467c0-0.157,0.124-0.312,0.397-0.404C44.293,2.902,46.5,2,46.807,2
				c0.214,0,0.337,0.156,0.337,0.591v17.125c0,2.361,0.368,2.796,1.904,2.796v0.497h-5.829L43.218,22.512L43.218,22.512z"/>
			<path fill="#B29B70" d="M54.443,14.992c-0.121,0.464-0.214,0.992-0.214,1.834c0,2.764,1.657,5.189,4.51,5.189
				c1.225,0,2.208-0.437,3.559-1.368l0.367,0.497c-1.379,1.119-2.731,2.112-4.723,2.112c-3.652,0-5.859-3.169-5.859-5.904
				c0-3.916,2.7-6.59,5.92-6.59c2.579,0,4.602,2.146,4.602,4.074c0,0.125-0.092,0.156-0.306,0.156H54.443z M60.454,14.246
				c-0.122-1.679-1.195-2.858-2.758-2.858c-1.78,0-2.76,1.46-3.1,2.858H60.454z"/>
			<path fill="#B29B70" d="M65.732,22.513c1.411,0,1.781-0.435,1.781-2.734v-4.26c0-2.143-0.123-2.579-1.014-2.702
				c-0.492-0.063-0.645-0.156-0.645-0.405c0-0.279,0.153-0.404,0.428-0.528c0.553-0.186,2.703-1.12,3.039-1.12
				c0.275,0,0.367,0.157,0.367,0.342c0,0.312-0.03,1.305-0.03,2.332v6.34c0,2.3,0.368,2.735,1.809,2.735v0.498h-5.736V22.513z
				 M68.587,3.058c0.735,0,1.317,0.589,1.317,1.335c0,0.746-0.582,1.337-1.317,1.337c-0.738,0-1.318-0.591-1.318-1.337
				C67.268,3.647,67.849,3.058,68.587,3.058"/>
			<path fill="#B29B70" d="M74.26,22.512c1.657,0,2.026-0.434,2.026-2.796v-5.812c0-0.715-0.155-0.839-0.735-1.212
				c-0.247-0.157-0.368-0.218-0.368-0.404c0-0.25,0.183-0.342,0.521-0.528c1.041-0.654,1.872-1.183,2.269-1.183
				c0.154,0,0.337,0.094,0.337,0.373v1.274c0.829-0.561,2.086-1.461,4.08-1.461c1.811,0,4.2,0.686,4.2,4.322v4.632
				c0,2.36,0.37,2.795,1.81,2.795v0.498h-5.765v-0.498c1.441,0,1.811-0.435,1.811-2.795v-4.104c0-2.518-1.073-3.792-3.192-3.792
				c-1.256,0-2.328,0.964-2.819,1.555v6.34c0,2.362,0.366,2.796,1.869,2.796v0.498H74.26V22.512z"/>
			<path fill="#B29B70" d="M117.263,9.49c-1.014-3.636-3.159-5.813-6.902-5.813c-4.72,0-8.126,4.569-8.126,9.605
				c0,7.77,5.705,9.354,8.064,9.354c3.192,0,4.327-1.149,4.389-2.578l0.121-2.332c0.124-2.362-0.365-2.798-2.758-2.798v-0.621h7.667
				v0.621c-1.995,0-2.271,0.436-2.303,2.798l-0.062,3.606c-1.225,0.745-3.587,1.924-6.928,1.924c-8.16,0-11.257-5.438-11.257-9.789
				c0-5.687,4.477-10.41,11.072-10.41c3.955,0,6.255,1.304,7.483,2.298c0.152,1.151,0.063,2.767,0.092,4.133L117.263,9.49
				L117.263,9.49z"/>
			<path fill="#B29B70" d="M126.557,10.763v8.268c0,2.176,1.165,3.17,2.698,3.17c1.442,0,3.098-1.119,3.373-2.021v-5.065
				c0-2.983-0.307-3.325-1.963-3.605v-0.497l4.111-0.25v9.449c0,0.934,0.244,1.461,0.768,1.461c0.487,0,0.828-0.154,1.135-0.249
				v0.715l-3.864,0.994v-1.896c-0.952,0.902-2.149,2.021-4.661,2.021c-3.222,0-3.742-1.989-3.742-4.164v-3.076
				c0-3.885-0.275-4.227-1.779-4.506v-0.497L126.557,10.763z"/>
			<path fill="#B29B70" d="M146.74,13.468c0,0.126-0.061,0.249-0.183,0.249c-0.155,0-0.244-0.093-0.306-0.186
				c-0.583-1.088-1.41-2.144-2.607-2.144c-0.922,0-1.655,0.621-1.655,1.803c0,3.076,5.58,2.516,5.58,6.341
				c0,1.461-1.44,3.728-4.321,3.728c-1.751,0-3.529-1.023-3.529-1.614c0-0.188,0.307-1.399,0.307-1.681
				c0-0.216,0.152-0.31,0.338-0.31c0.428,0,0.642,2.983,3.066,2.983c0.951,0,2.116-0.685,2.116-2.205
				c0-3.108-5.582-2.923-5.582-6.34c0-1.648,1.441-3.328,4.141-3.328c0.706,0,1.718,0.187,2.362,0.405
				c0.124,0.032,0.214,0.124,0.214,0.249L146.74,13.468z"/>
			<path fill="#B29B70" d="M158,12.069h-2.15c-1.255,0-1.686,0.312-1.686,2.238v5.998c0,1.367,0.828,1.896,1.961,1.896
				c0.862,0,1.568-0.154,2.15-0.249v0.622c-0.86,0.311-1.719,0.684-3.099,0.684c-2.544,0-3.158-1.616-3.158-3.107v-6.899
				c0-1.027-0.062-1.118-0.369-1.243c-0.245-0.092-0.982-0.124-0.982-0.434c0-0.218,0.278-0.436,0.523-0.685
				c2.054-2.114,2.33-2.549,2.635-2.549c0.187,0,0.338,0.093,0.338,0.498v2.176h3.836L158,12.069L158,12.069z"/>
			<path fill="#B29B70" d="M160.975,22.512c1.469,0,1.838-0.434,1.838-2.796v-5.534c0-0.746-0.151-1.058-0.735-1.335
				c-0.43-0.218-0.581-0.249-0.581-0.435c0-0.249,0.244-0.344,1.41-0.871c1.348-0.592,1.41-0.965,1.747-0.965
				c0.214,0,0.305,0.125,0.305,0.342v1.027c0,0.248,0.126,0.372,0.306,0.372c0.278,0,1.813-1.554,3.376-1.554
				c0.828,0,1.349,0.374,1.349,1.089c0,0.561-0.335,1.057-1.408,1.057c-0.4,0-1.136-0.091-1.688-0.091
				c-1.105,0-1.936,0.559-1.936,2.236v5.097c0,1.927,0.34,2.3,1.905,2.361v0.498h-5.889L160.975,22.512L160.975,22.512z"/>
			<path fill="#B29B70" d="M185.264,17.013c0,3.947-3.066,6.245-6.226,6.245c-3.158,0-6.226-2.298-6.226-6.245
				c0-3.948,3.067-6.25,6.226-6.25C182.198,10.763,185.264,13.064,185.264,17.013 M175.267,17.013c0,2.95,0.797,5.624,3.771,5.624
				c2.977,0,3.772-2.674,3.772-5.624c0-2.953-0.796-5.625-3.772-5.625C176.064,11.387,175.267,14.059,175.267,17.013"/>
			<path fill="#B29B70" d="M191.924,10.763v8.268c0,2.176,1.166,3.17,2.699,3.17c1.441,0,3.097-1.119,3.373-2.021v-5.065
				c0-2.983-0.307-3.325-1.963-3.605v-0.497l4.11-0.25v9.449c0,0.934,0.245,1.461,0.769,1.461c0.487,0,0.828-0.154,1.134-0.249
				v0.715l-3.865,0.994v-1.896c-0.951,0.902-2.147,2.021-4.662,2.021c-3.219,0-3.74-1.989-3.74-4.164v-3.076
				c0-3.885-0.276-4.227-1.78-4.506v-0.497L191.924,10.763z"/>
			<path fill="#B29B70" d="M210.297,11.014v0.497c-1.163,0.093-1.47,0.435-1.47,1.088c0,1.024,2.238,6.401,2.76,7.647
				c0.613-1.121,2.973-5.658,2.973-6.187c0-0.25-0.089-0.437-0.152-0.622l-0.369-0.809c-0.273-0.684-0.979-1.056-1.473-1.118v-0.497
				h5.614v0.497c-0.643,0.125-1.595,0.28-1.595,1.182c0,0.931,2.056,5.936,2.883,7.829c0.428-0.993,2.913-6.525,2.913-7.674
				c0-0.747-0.307-1.058-1.288-1.337v-0.497h4.109v0.497c-1.134,0.435-1.47,0.995-2.792,4.042l-3.342,7.706h-0.735l-3.13-8.607
				l-3.986,8.607h-0.673l-4.112-10.318c-0.426-1.057-0.98-1.366-1.469-1.429v-0.497L210.297,11.014L210.297,11.014z"/>
		</g>
	</g>
</g>
</svg>
