<?xml version="1.0" encoding="utf-8"?>
<!-- Generator: Adobe Illustrator 15.0.0, SVG Export Plug-In . SVG Version: 6.00 Build 0)  -->
<!DOCTYPE svg PUBLIC "-//W3C//DTD SVG 1.1//EN" "http://www.w3.org/Graphics/SVG/1.1/DTD/svg11.dtd">
<svg version="1.1" id="Layer_1" xmlns="http://www.w3.org/2000/svg" xmlns:xlink="http://www.w3.org/1999/xlink" x="0px" y="0px"
	 width="53.749px" height="49.5px" viewBox="0 0 53.749 49.5" enable-background="new 0 0 53.749 49.5" xml:space="preserve">
<g>
	<path fill-rule="evenodd" clip-rule="evenodd" fill="#B29B70" d="M43.599,14.387C40.918,6.691,35.807,2.145,27.361,2.145
		c-11.362,0-19.44,10.841-19.321,22.793C8.225,43.377,21.982,47.14,27.662,47.14c7.672,0,10.896-2.728,11.017-6.123l0.058-4.126
		c0.222-4.925-0.554-6.085-4.838-6.296c-0.596-0.026,0.103-0.04-0.63-0.04l-0.018-1.475h18.004l0.016,1.475
		c-5.033,0-5.719,1.034-5.74,6.64l-0.082,6.849c-3.078,1.77-9.015,4.572-17.457,4.572c-20.604,0-27.22-12.91-27.326-23.236
		C0.532,11.881,11.192,0.667,27.05,0.667c9.52,0,15.079,3.099,18.053,5.462c0.334,2.302,0.259,5.396,0.288,8.257H43.599z"/>
	<path fill="#B29B70" d="M44.939,28.242c0.106,0.103,0.209,0.199,0.312,0.288c0.123-0.058,0.267-0.14,0.267-0.194
		c0-0.018-0.624-0.75-0.937-1.111c-0.03-0.01-0.285-0.415-0.31-0.44c-0.083,0.052-0.628-0.188-0.688-0.106
		C43.72,27.008,44.705,27.963,44.939,28.242z M44.919,27.159c0.35,0.379,1.055,1.214,1.055,1.214c0.325,0.308,1.37,0.547,1.43,0.547
		c0.039,0,0.11-0.05,0.149-0.05c0.049,0,0.32,0.169,0.362,0.228c-0.082,0.005-0.112,0.005-0.163,0.005
		c-0.039,0-0.204,0.019-0.239,0.019c-0.075,0-0.715-0.101-0.944-0.198c-0.531-0.239-0.829-0.28-1.013-0.28h-0.167
		c0.101,0.077,0.202,0.146,0.294,0.201c0.14,0.076,0.67,0.248,0.733,0.256l0.389,0.034c0.037,0.003,0.253,0.143,0.381,0.206
		c0.08,0.042,0.214-0.027,0.307,0.13l-0.151,0.046c-0.04-0.001-0.433-0.173-0.52-0.196c-0.744-0.204-0.711-0.211-1.044-0.296
		c0.009,0.118,0.668,0.446,0.796,0.456c0.042,0.003,0.098-0.026,0.139-0.02c0.087,0.011,0.227,0.205,0.32,0.282
		c-0.061,0.058-0.08,0.019-0.091-0.012l-0.213-0.021c-0.04-0.001-0.065,0.028-0.093,0.028l-1.287-0.58
		c-0.183-0.101-0.217-0.076-0.67-0.117c-0.161-0.016-1.035,0.069-1.095,0.084c-0.118,0.033-0.311,0.085-0.348,0.079
		c-0.037-0.001-0.074-0.056-0.117-0.06c-0.037-0.002-0.071,0.035-0.079,0.076c-0.034-0.018-0.055-0.046-0.049-0.087
		c0-0.007,0.421-0.211,0.463-0.206c0.04,0.003,0.277-0.002,0.32,0.002c0.139,0.012,0.989-0.04,1.116-0.224
		c-0.078,0.006-0.025-0.11-0.025-0.11c-0.079-0.101-0.271-0.28-0.448-0.505l-0.995-1.031c-0.493-0.509-1.174-0.812-1.153-1.07
		c0.008-0.08,0.066-0.092,0.074-0.172c0.007-0.08,0.414-0.411,0.417-0.469c-0.021-0.029-2.19-2.442-2.19-2.442
		c-0.071-0.008-1.104-0.563-1.099-0.644c0.005-0.08,0.409-0.396,0.388-0.431l-1.41-1.771c-0.061-0.072-1.604-1.737-2.467-2.727
		c-0.476-0.549-1.303-1.299-1.313-1.323c-0.04-0.062,0.061-0.021,0.021-0.082c-0.048-0.08-0.193-0.141-0.25-0.235
		c-0.034-0.062-0.077-0.131-0.077-0.206l0.095-0.06c0.089,0.016,0.171,0.031,0.282,0.058c0.006-0.077,0.027-0.184,0-0.304
		c0.261,0.001,0.504,0.131,0.76,0.199c0.047-0.032,0.04-0.094,0.082-0.153l0.174-0.111c3.004,3.654,5.094,6.079,5.167,6.097
		l0.274,0.081c0.192,0.048,2.1-0.598,3.194-0.657c1.153-0.062,2.465,0.133,2.465,0.133c0.193,0.018,1.659,0.509,1.67,0.511
		c0.353,0.033,0.872-0.67,0.992-0.855c0.187-0.22,0.359-0.438,0.633-0.653c0.518-0.395,1.118-0.355,1.524-0.617
		c0.434-0.285,0.799-0.714,1.309-0.961c-0.087,0.246-0.443,0.888-0.46,1.085c-0.009,0.082,0.46-0.274,0.629-0.642
		c0.066,0.075-0.095,0.542-0.253,0.845c-0.089,0.178-0.253,0.287-0.283,0.428c-0.298,1.46-0.451,3.555-0.479,3.684
		c-0.243,1.058-0.777,1.809-1.666,2.591c-1.627,1.44-5.19,0.964-5.372,0.947C45.04,27.125,44.979,27.139,44.919,27.159z"/>
	<path fill-rule="evenodd" clip-rule="evenodd" fill="#B29B70" d="M25.29,12.892l0.029,0.751c1.283-0.038,2.214,0.373,2.251,1.273
		c0.037,1.124-1.161,2.638-3.117,4.776l-4.88,5.46v-8.286c0-2.851,0.406-3.375,2.643-3.375v-0.75h-8.483v0.75
		c2.24,0,2.646,0.524,2.646,3.375v15.519c0,2.851-0.406,3.376-2.646,3.376v0.748h8.416v-0.748c-2.169,0-2.575-0.526-2.575-3.376
		v-5.934l1.43-1.583l5.719,6.167c1.665,1.837,2.545,3.187,2.545,3.712c0,0.638-0.746,1.013-2.07,1.013v0.748h10.289v-0.748
		c-1.219-0.037-2.51-0.451-4.137-2.25L23.214,22.482c0,0,5.604-6.311,6.672-7.415c1.207-1.25,2.143-1.726,3.634-1.726l-0.024-0.6
		L25.29,12.892z"/>
</g>
</svg>
